<svg xmlns="http://www.w3.org/2000/svg" height="24px" viewBox="0 -960 960 960" width="24px" fill="#e3e3e3"><path d="m 440 -380 -237 -30 q -25 -3 -32.5 -27 t 10.5 -41 l 409 -392 q 5 -5 12 -7.5 t 19 -2.5 q 20 0 30.5 17 t 0.5 35 L 520 -580 l 237 30 q 25 3 32.5 27 T 779 -482 L 370 -90 q -5 5 -12 7.5 T 339 -80 q -20 0 -30.5 -17 t -0.5 -35 l 132 -248 Z"/><path d="m 440 -380 -237 -30 q -25 -3 -32.5 -27 t 10.5 -41 l 409 -392 q 5 -5 12 -7.5 t 19 -2.5 q 20 0 30.5 17 t 0.5 35 L 520 -580 l 237 30 q 25 3 32.5 27 T 779 -482 L 370 -90 q -5 5 -12 7.5 T 339 -80 q -20 0 -30.5 -17 t -0.5 -35 l 132 -248 Z"/><path d="m 440 -380 -237 -30 q -25 -3 -32.5 -27 t 10.5 -41 l 409 -392 q 5 -5 12 -7.5 t 19 -2.5 q 20 0 30.5 17 t 0.5 35 L 520 -580 l 237 30 q 25 3 32.5 27 T 779 -482 L 370 -90 q -5 5 -12 7.5 T 339 -80 q -20 0 -30.5 -17 t -0.5 -35 l 132 -248 Z"/></svg>